Coordinates
version=1
nRows=22
nColumns=33
inDegrees=yes

Units are S.I. units (second, meters, Newtons, ...)
Angles are in degrees.

endheader
time	ground_thorax_rot_x	ground_thorax_rot_y	ground_thorax_rot_z	ground_thorax_tx	ground_thorax_ty	ground_thorax_tz	clav_prot_r	clav_elev_r	scapula_abduction_r	scapula_elevation_r	scapula_upward_rot_r	scapula_winging_r	shoulder_elv_r	plane_of_elev_r	axial_rot_r	elbow_flexion_r	pro_sup_r	wrist_flex_r	wrist_dev_r	clav_prot_l	clav_elev_l	scapula_abduction_l	scapula_elevation_l	scapula_upward_rot_l	scapula_winging_l	shoulder_elv_l	plane_of_elev_l	axial_rot_l	elbow_flexion_l	pro_sup_l	wrist_flex_l	wrist_dev_l	
1.8400	-40.642140	-10.830331	8.669568	-190.548059	838.282013	-11.191581	4.566813	-45.000000	32.997316	-45.000000	-20.236203	2050.949111	68.082977	21.538538	-180.000000	725.605869	273.248279	18.753378	9.860662	15.586521	38.075724	-34.523574	-45.000000	-45.000000	-637.502657	-3530.684805	18.028680	-47.958593	-350.277255	30.694803	9.405918	-21.581948	
1.8500	-40.563732	-10.520687	8.553477	-191.781477	840.481708	-11.186178	4.354199	-45.000000	33.336584	-45.000000	-19.391432	2050.658534	68.184798	21.551293	-180.000000	725.727469	272.667645	18.769994	9.884079	15.397441	38.110056	-34.498848	-45.000000	-45.000000	-637.282716	-3530.669459	18.132133	-48.140231	-350.207812	30.668858	9.347198	-21.609863	
1.8600	-40.479699	-10.214702	8.442047	-192.924642	842.619541	-11.172649	4.157562	-45.000000	33.703346	-45.000000	-18.560539	2050.359973	68.268336	21.569798	-180.000000	725.841746	272.064162	18.782676	9.915033	15.216789	38.099420	-34.470783	-45.000000	-45.000000	-637.076226	-3530.649449	18.239571	-48.293646	-350.138207	30.630868	9.278116	-21.627658	
1.8700	-40.401006	-9.895933	8.330624	-193.870138	844.630645	-11.140566	4.032281	-45.000000	33.959246	-45.000000	-17.859181	2050.153864	68.350363	21.597678	-180.000000	725.920420	271.369860	18.823860	9.951048	15.097432	38.102976	-34.488309	-45.000000	-45.000000	-636.907182	-3530.620759	18.314014	-48.333765	-350.077260	30.549926	9.243874	-21.650297	
1.8800	-40.323142	-9.601961	8.248954	-194.608189	846.499515	-11.088697	3.958025	-45.000000	34.163852	-45.000000	-17.262610	2050.000622	68.434488	21.633566	-180.000000	725.976990	270.598866	18.869506	9.998092	15.028480	38.084857	-34.511451	-45.000000	-45.000000	-636.762984	-3530.570876	18.367974	-48.284060	-350.014086	30.434881	9.212397	-21.666099	
1.8900	-40.247358	-9.325018	8.179381	-195.115506	848.203396	-11.014079	3.930197	-45.000000	34.316425	-45.000000	-16.757087	2049.908809	68.512005	21.672811	-180.000000	726.007986	269.759019	18.924893	10.049011	14.992331	38.081120	-34.548407	-45.000000	-45.000000	-636.646873	-3530.498245	18.399284	-48.173309	-349.951290	30.298536	9.193394	-21.682442	
1.9000	-40.170759	-9.091079	8.148947	-195.395464	849.735331	-10.915919	3.926603	-45.000000	34.443936	-45.000000	-16.323663	2049.853449	68.594383	21.714804	-180.000000	726.030996	268.887737	18.974469	10.109024	14.989294	38.055037	-34.579628	-45.000000	-45.000000	-636.541600	-3530.402414	18.417454	-48.029901	-349.877425	30.157518	9.156340	-21.689605	
1.9100	-40.090714	-8.892992	8.143356	-195.463087	851.097891	-10.794394	3.923619	-45.000000	34.558210	-45.000000	-15.944984	2049.839987	68.681345	21.745675	-180.000000	726.043757	268.028061	19.017411	10.164666	14.995500	38.061108	-34.603827	-45.000000	-45.000000	-636.453785	-3530.286658	18.426719	-47.898315	-349.800396	30.039812	9.113872	-21.697396	
1.9200	-40.005183	-8.717686	8.155866	-195.332623	852.297727	-10.649699	3.926273	-45.000000	34.673524	-45.000000	-15.596575	2049.843195	68.768260	21.778632	-180.000000	726.059677	267.225446	19.063142	10.221528	15.007801	38.046349	-34.639881	-45.000000	-45.000000	-636.377337	-3530.175617	18.436306	-47.798974	-349.731461	29.965673	9.051921	-21.696751	
1.9300	-39.916087	-8.549346	8.166115	-195.017680	853.345404	-10.482390	3.921406	-45.000000	34.788647	-45.000000	-15.263706	2049.882040	68.852299	21.794813	-180.000000	726.070570	266.524935	19.113503	10.267301	15.016285	38.070730	-34.694916	-45.000000	-45.000000	-636.321119	-3530.067075	18.446124	-47.745526	-349.668657	29.954552	8.988941	-21.700635	
1.9400	-39.821167	-8.395204	8.189280	-194.531530	854.255058	-10.293364	3.925606	-45.000000	34.920223	-45.000000	-14.936984	2049.915310	68.934026	21.817463	-180.000000	726.084259	265.967820	19.174218	10.314135	15.026876	38.047479	-34.766016	-45.000000	-45.000000	-636.274980	-3529.977217	18.468055	-47.711704	-349.617257	30.012540	8.899875	-21.692937	
1.9500	-39.724255	-8.263899	8.224887	-193.887865	855.043542	-10.083809	3.926603	-45.000000	35.060819	-45.000000	-14.620313	2049.969595	69.025879	21.822029	-180.000000	726.085462	265.586253	19.233775	10.349201	15.033732	38.059509	-34.833382	-45.000000	-45.000000	-636.248392	-3529.882246	18.493991	-47.684276	-349.560821	30.145744	8.804215	-21.689922	
1.9600	-39.627045	-8.146293	8.258061	-193.101297	855.729667	-9.854987	3.950299	-45.000000	35.224136	-45.000000	-14.293653	2050.005534	69.106920	21.841052	-180.000000	726.076251	265.407414	19.315032	10.385020	15.025847	38.013490	-34.903645	-45.000000	-45.000000	-636.231459	-3529.799793	18.535062	-47.645023	-349.508981	30.354212	8.685718	-21.678843	
1.9700	-39.533827	-8.047823	8.287788	-192.187865	856.333112	-9.608113	3.972882	-45.000000	35.400448	-45.000000	-13.954311	2050.054298	69.188469	21.845999	-180.000000	726.046790	265.462727	19.398365	10.407843	15.002458	37.998968	-34.967363	-45.000000	-45.000000	-636.223584	-3529.705061	18.578039	-47.590662	-349.432388	30.642431	8.560868	-21.677547	
1.9800	-39.441873	-7.966213	8.314761	-191.165018	856.873404	-9.344296	4.012599	-45.000000	35.595074	-45.000000	-13.601732	2050.088916	69.264779	21.858915	-180.000000	725.999856	265.770034	19.498747	10.426756	14.961392	37.947752	-35.025257	-45.000000	-45.000000	-636.226958	-3529.608754	18.624604	-47.511224	-349.346936	31.010463	8.417572	-21.675439	
1.9900	-39.353314	-7.897949	8.337727	-190.051502	857.368599	-9.064743	4.049831	-45.000000	35.798694	-45.000000	-13.239420	2050.136956	69.347971	21.855448	-180.000000	725.933501	266.340409	19.597235	10.428240	14.908216	37.944067	-35.075804	-45.000000	-45.000000	-636.246508	-3529.496241	18.666982	-47.421873	-349.241797	31.463896	8.274588	-21.685694	
2.0000	-39.270336	-7.838787	8.350870	-188.866895	857.834592	-8.771070	4.098224	-45.000000	36.019227	-45.000000	-12.861208	2050.173545	69.423902	21.857357	-180.000000	725.858704	267.171338	19.712030	10.422053	14.850306	37.917149	-35.126700	-45.000000	-45.000000	-636.274173	-3529.383394	18.709558	-47.327054	-349.133990	32.003856	8.118161	-21.696653	
2.0100	-39.195791	-7.775810	8.351641	-187.630848	858.284674	-8.465709	4.138939	-45.000000	36.241806	-45.000000	-12.459569	2050.213073	69.500232	21.848887	-180.000000	725.777358	268.257823	19.829045	10.395681	14.797758	37.929467	-35.193543	-45.000000	-44.999999	-636.306017	-3529.269262	18.750804	-47.241421	-349.015460	32.637059	7.960688	-21.715697	
2.0200	-39.134522	-7.700617	8.332694	-186.362227	858.729754	-8.152284	4.165563	-45.000000	36.455648	-45.000000	-12.036527	2050.251389	69.566689	21.842111	-180.000000	725.695689	269.585297	19.961443	10.353820	14.770825	37.935757	-35.289328	-45.000000	-44.999999	-636.328393	-3529.167480	18.793882	-47.170374	-348.892091	33.363169	7.793534	-21.736785	
2.0300	-39.086130	-7.613194	8.300138	-185.077605	859.179149	-7.835711	4.170620	-45.000000	36.650840	-45.000000	-11.592234	2050.291677	69.624426	21.828384	-180.000000	725.613442	271.131031	20.102381	10.287528	14.765804	37.962423	-35.409874	-45.000000	-44.999997	-636.341591	-3529.076823	18.840662	-47.116993	-348.761725	34.178574	7.623610	-21.760601	
2.0400	-39.059675	-7.501952	8.242320	-183.790764	859.641544	-7.522212	4.136426	-45.000000	36.806823	-45.000000	-11.146096	2050.348455	69.668975	21.818366	-180.000000	725.535900	272.873253	20.258836	10.198496	14.799074	37.982549	-35.575236	-45.000000	-44.999995	-636.323253	-3529.007497	18.892133	-47.078184	-348.620912	35.074266	7.447020	-21.784803	
2.0500	-39.049692	-7.378222	8.171530	-182.510877	860.126576	-7.218625	4.079684	-45.000000	36.948147	-45.000000	-10.682754	2050.404249	69.710580	21.808873	-180.000000	725.462121	274.772577	20.423674	10.082571	14.851335	38.008954	-35.762894	-45.000000	-44.999992	-636.288881	-3528.946752	18.945644	-47.048471	-348.476079	36.032525	7.270341	-21.807446	
